:FULLY-SPECIFIED
:FORCE-ALL-JOINTS-BE-3DOF
:DEGREES
918
root -0.22184 14.138 -36.3531 12.2938 -26.9392 -16.5576
lfemur -64.596 31.6117 -0.499288
ltibia 70.1736 -0 0
lfoot -6.98786 -9.9437 0.00397764
ltoes -8.91425 0 0
rfemur 6.26193 -8.41494 13.2785
rtibia 38.6622 -0 0
rfoot -22.4641 -28.9037 -1.54644e-05
rtoes -27.6766 0 0
lowerback 11.322 -0.088111 6.79752
upperback -1.53923 1.24355 5.79074
thorax -8.0318 0.420213 2.13033
lowerneck -3.82622 7.81328 2.67226
upperneck 4.34172 10.3242 -0.917048
head 2.2154 5.1641 -0.404607
lclavicle 9.01985e-15 1.66979e-14 0
lhumerus 10.3576 0.158394 72.0213
lradius 17.786 -0 0
lwrist -33.9782 0 0
lhand -27.1055 28.7783 -0.0237384
lfingers 7.12502 -0 0
lthumb -0.521901 58.7408 -0.0222561
rclavicle 9.01985e-15 1.66979e-14 0
rhumerus -76.7967 21.4186 -96.2087
rradius 110.051 -0 0
rwrist -67.7656 0 0
rhand -10.8998 -24.6181 -0.000685496
rfingers 7.12502 -0 0
rthumb 15.117 -54.0458 -0.000613051
919
root -0.219605 14.1328 -36.351 12.2616 -26.8988 -16.6141
lfemur -64.7216 31.7092 -0.551471
ltibia 70.3701 -0 0
lfoot -7.05183 -10.0601 0.00323344
ltoes -8.64175 0 0
rfemur 6.34425 -8.42065 13.2735
rtibia 38.6688 -0 0
rfoot -22.4607 -28.9122 -1.25711e-05
rtoes -27.7236 0 0
lowerback 11.2947 -0.107676 6.83136
upperback -1.52158 1.22165 5.85489
thorax -7.99858 0.410015 2.18405
lowerneck -3.83762 7.81792 2.72289
upperneck 4.40365 10.3291 -0.947165
head 2.24276 5.16653 -0.419596
lclavicle 9.01985e-15 1.66979e-14 0
lhumerus 10.2019 -0.517477 72.3473
lradius 17.7959 -0 0
lwrist -33.183 0 0
lhand -26.7533 28.6523 -0.0192963
lfingers 7.12502 -0 0
lthumb -0.181749 58.6184 -0.0180915
rclavicle 9.01985e-15 1.66979e-14 0
rhumerus -76.8019 21.3935 -96.1571
rradius 110.007 -0 0
rwrist -67.7278 0 0
rhand -10.864 -24.6539 -0.000557245
rfingers 7.12502 -0 0
rthumb 15.1515 -54.079 -0.000498354
920
root -0.217853 14.1283 -36.3493 12.2328 -26.8627 -16.6648
lfemur -64.8343 31.7965 -0.598505
ltibia 70.5462 -0 0
lfoot -7.10916 -10.1643 0.00245598
ltoes -8.39749 0 0
rfemur 6.41804 -8.42577 13.269
rtibia 38.6746 -0 0
rfoot -22.4577 -28.9198 -9.54855e-06
rtoes -27.7658 0 0
lowerback 11.2703 -0.125199 6.8617
upperback -1.50578 1.202 5.91239
thorax -7.96882 0.400848 2.2322
lowerneck -3.84784 7.82209 2.76828
upperneck 4.45916 10.3336 -0.974155
head 2.26729 5.16871 -0.433031
lclavicle 9.01985e-15 1.66979e-14 0
lhumerus 10.059 -1.12252 72.6411
lradius 17.8049 -0 0
lwrist -32.4701 0 0
lhand -26.4376 28.5393 -0.0146561
lfingers 7.12502 -0 0
lthumb 0.123136 58.5087 -0.0137411
rclavicle 9.01985e-15 1.66979e-14 0
rhumerus -76.8066 21.3711 -96.1109
rradius 109.968 -0 0
rwrist -67.6939 0 0
rhand -10.8319 -24.686 -0.000423262
rfingers 7.12502 -0 0
rthumb 15.1825 -54.1088 -0.00037853
921
root -0.216533 14.1245 -36.3479 12.2078 -26.8315 -16.7085
lfemur -64.9318 31.8719 -0.639339
ltibia 70.6983 -0 0
lfoot -7.15869 -10.2545 0.00170027
ltoes -8.18646 0 0
rfemur 6.48179 -8.43019 13.2651
rtibia 38.6797 -0 0
rfoot -22.455 -28.9264 -6.61049e-06
rtoes -27.8022 0 0
lowerback 11.2491 -0.140328 6.88792
upperback -1.49214 1.18501 5.96205
thorax -7.94311 0.392907 2.2738
lowerneck -3.85666 7.8257 2.80749
upperneck 4.50712 10.3375 -0.99747
head 2.28848 5.1706 -0.444637
lclavicle 9.01985e-15 1.66979e-14 0
lhumerus 9.93306 -1.64465 72.8962
lradius 17.8126 -0 0
lwrist -31.8543 0 0
lhand -26.1649 28.4417 -0.0101461
lfingers 7.12502 -0 0
lthumb 0.386532 58.414 -0.00951262
rclavicle 9.01985e-15 1.66979e-14 0
rhumerus -76.8106 21.3517 -96.071
rradius 109.934 -0 0
rwrist -67.6647 0 0
rhand -10.8041 -24.7137 -0.000293025
rfingers 7.12502 -0 0
rthumb 15.2092 -54.1346 -0.000262057
922
root -0.215594 14.1215 -36.3469 12.1873 -26.806 -16.7444
lfemur -65.0118 31.9336 -0.672915
ltibia 70.8229 -0 0
lfoot -7.19925 -10.3282 0.00102342
ltoes -8.01365 0 0
rfemur 6.53399 -8.4338 13.2619
rtibia 38.6838 -0 0
rfoot -22.4529 -28.9318 -3.97896e-06
rtoes -27.8321 0 0
lowerback 11.2318 -0.152709 6.90939
upperback -1.48099 1.17109 6.00272
thorax -7.92207 0.386391 2.30785
lowerneck -3.86389 7.82866 2.83959
upperneck 4.54639 10.3407 -1.01656
head 2.30583 5.17215 -0.45414
lclavicle 9.01985e-15 1.66979e-14 0
lhumerus 9.82816 -2.0718 73.1061
lradius 17.8189 -0 0
lwrist -31.35 0 0
lhand -25.9415 28.3618 -0.00610685
lfingers 7.12502 -0 0
lthumb 0.602222 58.3364 -0.0057256
rclavicle 9.01985e-15 1.66979e-14 0
rhumerus -76.814 21.3358 -96.0383
rradius 109.906 -0 0
rwrist -67.6408 0 0
rhand -10.7814 -24.7364 -0.000176376
rfingers 7.12502 -0 0
rthumb 15.2311 -54.1556 -0.000157736
923
root -0.214985 14.1193 -36.3462 12.172 -26.7869 -16.7713
lfemur -65.0718 31.9798 -0.698179
ltibia 70.9163 -0 0
lfoot -7.22967 -10.3836 0.000481496
ltoes -7.88405 0 0
rfemur 6.57315 -8.43651 13.2595
rtibia 38.687 -0 0
rfoot -22.4513 -28.9359 -1.87202e-06
rtoes -27.8545 0 0
lowerback 11.2188 -0.161991 6.9255
upperback -1.47263 1.16064 6.03322
thorax -7.90628 0.381496 2.3334
lowerneck -3.86931 7.83088 2.86367
upperneck 4.57584 10.3431 -1.03088
head 2.31884 5.17331 -0.461267
lclavicle 9.01985e-15 1.66979e-14 0
lhumerus 9.74844 -2.39191 73.264
lradius 17.8237 -0 0
lwrist -30.9717 0 0
lhand -25.774 28.3019 -0.00287307
lfingers 7.12502 -0 0
lthumb 0.763986 58.2782 -0.00269371
rclavicle 9.01985e-15 1.66979e-14 0
rhumerus -76.8165 21.3239 -96.0138
rradius 109.886 -0 0
rwrist -67.6228 0 0
rhand -10.7643 -24.7534 -8.29816e-05
rfingers 7.12502 -0 0
rthumb 15.2475 -54.1714 -7.42119e-05
924
root -0.214658 14.1179 -36.3458 12.1623 -26.7749 -16.7881
lfemur -65.1096 32.0088 -0.714085
ltibia 70.975 -0 0
lfoot -7.24878 -10.4183 0.000126033
ltoes -7.80263 0 0
rfemur 6.59775 -8.43821 13.258
rtibia 38.6889 -0 0
rfoot -22.4503 -28.9384 -4.90009e-07
rtoes -27.8685 0 0
lowerback 11.2106 -0.16782 6.93562
upperback -1.46738 1.15408 6.05238
thorax -7.89637 0.378417 2.34944
lowerneck -3.87271 7.83228 2.8788
upperneck 4.59434 10.3446 -1.03987
head 2.32701 5.17405 -0.465745
lclavicle 9.01985e-15 1.66979e-14 0
lhumerus 9.6979 -2.59289 73.3634
lradius 17.8267 -0 0
lwrist -30.7341 0 0
lhand -25.6688 28.2643 -0.000752022
lfingers 7.12502 -0 0
lthumb 0.865605 58.2417 -0.000705075
rclavicle 9.01985e-15 1.66979e-14 0
rhumerus -76.8181 21.3164 -95.9983
rradius 109.873 -0 0
rwrist -67.6115 0 0
rhand -10.7536 -24.7641 -2.17207e-05
rfingers 7.12502 -0 0
rthumb 15.2578 -54.1814 -1.94252e-05
925
root -0.150218 14.0582 -36.2789 12.159 -26.7707 -16.794
lfemur -65.1227 32.0189 -0.71961
ltibia 70.9954 0 0
lfoot -7.25541 -10.4304 0
ltoes -7.77438 0 0
rfemur 6.60628 -8.4388 13.2575
rtibia 38.6896 0 0
rfoot -22.4499 -28.9393 0
rtoes -27.8734 0 0
lowerback 11.2078 -0.169842 6.93913
upperback -1.46556 1.1518 6.05903
thorax -7.89293 0.377348 2.35501
lowerneck -3.87389 7.83276 2.88405
upperneck 4.60076 10.3451 -1.04299
head 2.32985 5.1743 -0.467298
lclavicle -1.22253e-14 -6.55989e-15 0
lhumerus 9.68028 -2.6626 73.398
lradius 17.8277 0 0
lwrist -30.6517 0 0
lhand -25.6323 28.2512 0
lfingers 7.12502 0 0
lthumb 0.90086 58.229 0
rclavicle -1.22253e-14 -6.55989e-15 0
rhumerus -76.8186 21.3138 -95.993
rradius 109.868 0 0
rwrist -67.6076 0 0
rhand -10.7499 -24.7678 0
rfingers 7.12502 0 0
rthumb 15.2614 -54.1848 0
926
root -0.14093 14.0498 -36.2691 12.166 -26.7819 -16.8125
lfemur -65.1857 32.0594 -0.754264
ltibia 71.1035 -0 0
lfoot -7.26577 -10.4431 3.96402e-05
ltoes -7.6226 0 0
rfemur 6.62566 -8.46402 13.2121
rtibia 38.6846 -0 0
rfoot -22.4746 -28.8806 -0.000436223
rtoes -27.9618 0 0
lowerback 11.1933 -0.180624 6.95542
upperback -1.46301 1.13965 6.09465
thorax -7.88263 0.371593 2.38633
lowerneck -3.87391 7.83852 2.89689
upperneck 4.64301 10.3531 -1.05651
head 2.34596 5.17819 -0.472181
lclavicle -1.22253e-14 -6.55989e-15 0
lhumerus 9.73387 -4.14805 73.5252
lradius 18.4998 -0 0
lwrist -29.4239 0 0
lhand -25.568 28.3582 0.00206993
lfingers 7.12502 -0 0
lthumb 0.962938 58.3354 0.00198821
rclavicle -1.22253e-14 -6.55989e-15 0
rhumerus -76.816 21.3243 -95.9837
rradius 109.884 -0 0
rwrist -67.5905 0 0
rhand -10.7659 -24.7664 -6.98775e-06
rfingers 7.12502 -0 0
rthumb 15.246 -54.1845 -1.38836e-06
